<svg width="159" height="30" viewBox="0 0 159 30" fill="none" xmlns="http://www.w3.org/2000/svg">
<path d="M4.44 24.288C3.464 24.288 2.768 23.992 2.352 23.4C1.952 22.808 1.752 22 1.752 20.976V7.056H4.512V21.12C4.512 21.456 4.576 21.696 4.704 21.84C4.832 21.968 4.968 22.032 5.112 22.032C5.176 22.032 5.232 22.032 5.28 22.032C5.344 22.016 5.432 22 5.544 21.984L5.904 24.048C5.744 24.112 5.536 24.168 5.28 24.216C5.04 24.264 4.76 24.288 4.44 24.288ZM13.3076 24.288C12.2196 24.288 11.2356 24.048 10.3556 23.568C9.47563 23.072 8.77963 22.368 8.26763 21.456C7.75563 20.528 7.49963 19.416 7.49963 18.12C7.49963 16.84 7.75563 15.736 8.26763 14.808C8.79563 13.88 9.47563 13.168 10.3076 12.672C11.1396 12.176 12.0116 11.928 12.9236 11.928C13.9956 11.928 14.8916 12.168 15.6116 12.648C16.3316 13.112 16.8756 13.768 17.2436 14.616C17.6116 15.448 17.7956 16.416 17.7956 17.52C17.7956 18.096 17.7556 18.544 17.6756 18.864H10.1876C10.3156 19.904 10.6916 20.712 11.3156 21.288C11.9396 21.864 12.7236 22.152 13.6676 22.152C14.1796 22.152 14.6516 22.08 15.0836 21.936C15.5316 21.776 15.9716 21.56 16.4036 21.288L17.3396 23.016C16.7796 23.384 16.1556 23.688 15.4676 23.928C14.7796 24.168 14.0596 24.288 13.3076 24.288ZM10.1636 16.992H15.3956C15.3956 16.08 15.1956 15.368 14.7956 14.856C14.3956 14.328 13.7956 14.064 12.9956 14.064C12.3076 14.064 11.6916 14.32 11.1476 14.832C10.6196 15.328 10.2916 16.048 10.1636 16.992ZM24.3013 29.208C23.3733 29.208 22.5333 29.096 21.7813 28.872C21.0453 28.648 20.4613 28.304 20.0293 27.84C19.6133 27.392 19.4053 26.824 19.4053 26.136C19.4053 25.16 19.9653 24.32 21.0853 23.616V23.52C20.7813 23.328 20.5253 23.072 20.3173 22.752C20.1253 22.432 20.0293 22.032 20.0293 21.552C20.0293 21.088 20.1573 20.672 20.4133 20.304C20.6853 19.92 20.9893 19.608 21.3253 19.368V19.272C20.9253 18.968 20.5653 18.544 20.2453 18C19.9413 17.456 19.7893 16.84 19.7893 16.152C19.7893 15.24 20.0053 14.472 20.4373 13.848C20.8693 13.224 21.4373 12.752 22.1413 12.432C22.8613 12.096 23.6293 11.928 24.4453 11.928C24.7653 11.928 25.0693 11.96 25.3573 12.024C25.6613 12.072 25.9333 12.136 26.1733 12.216H30.3973V14.256H28.2373C28.4293 14.48 28.5893 14.768 28.7173 15.12C28.8453 15.456 28.9093 15.832 28.9093 16.248C28.9093 17.112 28.7093 17.848 28.3093 18.456C27.9093 19.048 27.3733 19.496 26.7013 19.8C26.0293 20.104 25.2773 20.256 24.4453 20.256C24.1893 20.256 23.9253 20.232 23.6533 20.184C23.3813 20.136 23.1093 20.056 22.8373 19.944C22.6613 20.104 22.5173 20.264 22.4053 20.424C22.3093 20.584 22.2613 20.8 22.2613 21.072C22.2613 21.408 22.3973 21.672 22.6693 21.864C22.9573 22.056 23.4613 22.152 24.1813 22.152H26.2693C27.6933 22.152 28.7653 22.384 29.4853 22.848C30.2213 23.296 30.5893 24.032 30.5893 25.056C30.5893 25.824 30.3333 26.52 29.8213 27.144C29.3093 27.784 28.5813 28.288 27.6373 28.656C26.6933 29.024 25.5813 29.208 24.3013 29.208ZM24.4453 18.528C25.0053 18.528 25.4853 18.32 25.8853 17.904C26.2853 17.488 26.4853 16.904 26.4853 16.152C26.4853 15.416 26.2853 14.848 25.8853 14.448C25.5013 14.032 25.0213 13.824 24.4453 13.824C23.8693 13.824 23.3813 14.024 22.9813 14.424C22.5813 14.824 22.3813 15.4 22.3813 16.152C22.3813 16.904 22.5813 17.488 22.9813 17.904C23.3813 18.32 23.8693 18.528 24.4453 18.528ZM24.7333 27.408C25.6773 27.408 26.4453 27.216 27.0373 26.832C27.6293 26.448 27.9253 26.008 27.9253 25.512C27.9253 25.048 27.7413 24.736 27.3733 24.576C27.0213 24.416 26.5093 24.336 25.8373 24.336H24.2293C23.5893 24.336 23.0533 24.28 22.6213 24.168C22.0133 24.632 21.7093 25.152 21.7093 25.728C21.7093 26.256 21.9813 26.664 22.5253 26.952C23.0693 27.256 23.8053 27.408 24.7333 27.408ZM35.1002 24.288C34.0762 24.288 33.2362 23.968 32.5802 23.328C31.9402 22.688 31.6202 21.856 31.6202 20.832C31.6202 19.568 32.1722 18.592 33.2762 17.904C34.3802 17.2 36.1402 16.72 38.5562 16.464C38.5402 15.84 38.3722 15.304 38.0522 14.856C37.7482 14.392 37.1962 14.16 36.3962 14.16C35.8202 14.16 35.2522 14.272 34.6922 14.496C34.1482 14.72 33.6122 14.992 33.0842 15.312L32.0762 13.464C32.7322 13.048 33.4682 12.688 34.2842 12.384C35.1162 12.08 35.9962 11.928 36.9242 11.928C38.3962 11.928 39.4922 12.368 40.2122 13.248C40.9482 14.112 41.3162 15.368 41.3162 17.016V24H39.0362L38.8442 22.704H38.7482C38.2202 23.152 37.6522 23.528 37.0442 23.832C36.4522 24.136 35.8042 24.288 35.1002 24.288ZM35.9882 22.128C36.4682 22.128 36.9002 22.016 37.2842 21.792C37.6842 21.552 38.1082 21.232 38.5562 20.832V18.192C36.9562 18.4 35.8442 18.712 35.2202 19.128C34.5962 19.528 34.2842 20.024 34.2842 20.616C34.2842 21.144 34.4442 21.528 34.7642 21.768C35.0842 22.008 35.4922 22.128 35.9882 22.128ZM47.3072 24.288C46.3312 24.288 45.6352 23.992 45.2192 23.4C44.8192 22.808 44.6192 22 44.6192 20.976V7.056H47.3792V21.12C47.3792 21.456 47.4432 21.696 47.5712 21.84C47.6992 21.968 47.8352 22.032 47.9792 22.032C48.0432 22.032 48.0992 22.032 48.1472 22.032C48.2112 22.016 48.2992 22 48.4112 21.984L48.7712 24.048C48.6112 24.112 48.4032 24.168 48.1472 24.216C47.9072 24.264 47.6272 24.288 47.3072 24.288ZM55.2868 24.288C53.9268 24.288 52.9588 23.896 52.3828 23.112C51.8228 22.312 51.5428 21.28 51.5428 20.016V14.4H49.8628V12.336L51.6868 12.216L52.0228 9H54.3268V12.216H57.3268V14.4H54.3268V20.016C54.3268 21.392 54.8788 22.08 55.9828 22.08C56.1908 22.08 56.4068 22.056 56.6308 22.008C56.8548 21.944 57.0468 21.88 57.2068 21.816L57.6868 23.856C57.3668 23.968 56.9988 24.064 56.5828 24.144C56.1828 24.24 55.7508 24.288 55.2868 24.288ZM64.4717 24.288C63.3837 24.288 62.3997 24.048 61.5197 23.568C60.6397 23.072 59.9437 22.368 59.4317 21.456C58.9197 20.528 58.6637 19.416 58.6637 18.12C58.6637 16.84 58.9197 15.736 59.4317 14.808C59.9597 13.88 60.6397 13.168 61.4717 12.672C62.3037 12.176 63.1757 11.928 64.0877 11.928C65.1597 11.928 66.0557 12.168 66.7757 12.648C67.4957 13.112 68.0397 13.768 68.4077 14.616C68.7757 15.448 68.9597 16.416 68.9597 17.52C68.9597 18.096 68.9197 18.544 68.8397 18.864H61.3517C61.4797 19.904 61.8557 20.712 62.4797 21.288C63.1037 21.864 63.8877 22.152 64.8317 22.152C65.3437 22.152 65.8157 22.08 66.2477 21.936C66.6957 21.776 67.1357 21.56 67.5677 21.288L68.5037 23.016C67.9437 23.384 67.3197 23.688 66.6317 23.928C65.9437 24.168 65.2237 24.288 64.4717 24.288ZM61.3277 16.992H66.5597C66.5597 16.08 66.3597 15.368 65.9597 14.856C65.5597 14.328 64.9597 14.064 64.1597 14.064C63.4717 14.064 62.8557 14.32 62.3117 14.832C61.7837 15.328 61.4557 16.048 61.3277 16.992ZM71.5958 24V12.216H73.8758L74.0678 13.824H74.1638C74.6598 13.296 75.1958 12.848 75.7718 12.48C76.3638 12.112 77.0278 11.928 77.7638 11.928C78.6278 11.928 79.3158 12.12 79.8278 12.504C80.3558 12.872 80.7558 13.384 81.0278 14.04C81.5878 13.432 82.1718 12.928 82.7798 12.528C83.4038 12.128 84.0838 11.928 84.8198 11.928C86.0678 11.928 86.9878 12.336 87.5798 13.152C88.1718 13.968 88.4678 15.12 88.4678 16.608V24H85.6838V16.968C85.6838 15.992 85.5318 15.304 85.2278 14.904C84.9398 14.504 84.4918 14.304 83.8838 14.304C83.1478 14.304 82.3238 14.792 81.4118 15.768V24H78.6518V16.968C78.6518 15.992 78.4998 15.304 78.1958 14.904C77.9078 14.504 77.4518 14.304 76.8278 14.304C76.0918 14.304 75.2678 14.792 74.3558 15.768V24H71.5958ZM91.8223 28.656V12.216H94.1023L94.2943 13.464H94.3903C94.8863 13.048 95.4383 12.688 96.0463 12.384C96.6703 12.08 97.3023 11.928 97.9423 11.928C99.4143 11.928 100.55 12.472 101.35 13.56C102.166 14.648 102.574 16.104 102.574 17.928C102.574 19.272 102.334 20.424 101.854 21.384C101.374 22.328 100.75 23.048 99.9823 23.544C99.2303 24.04 98.4143 24.288 97.5343 24.288C97.0223 24.288 96.5103 24.176 95.9983 23.952C95.4863 23.712 94.9903 23.392 94.5103 22.992L94.5823 24.96V28.656H91.8223ZM96.9583 22.008C97.7423 22.008 98.3983 21.664 98.9263 20.976C99.4543 20.288 99.7183 19.28 99.7183 17.952C99.7183 16.768 99.5183 15.848 99.1183 15.192C98.7183 14.536 98.0703 14.208 97.1743 14.208C96.3423 14.208 95.4783 14.648 94.5823 15.528V21.024C95.0143 21.376 95.4303 21.632 95.8303 21.792C96.2303 21.936 96.6063 22.008 96.9583 22.008ZM108.057 24.288C107.081 24.288 106.385 23.992 105.969 23.4C105.569 22.808 105.369 22 105.369 20.976V7.056H108.129V21.12C108.129 21.456 108.193 21.696 108.321 21.84C108.449 21.968 108.585 22.032 108.729 22.032C108.793 22.032 108.849 22.032 108.897 22.032C108.961 22.016 109.049 22 109.161 21.984L109.521 24.048C109.361 24.112 109.153 24.168 108.897 24.216C108.657 24.264 108.377 24.288 108.057 24.288ZM114.741 24.288C113.717 24.288 112.877 23.968 112.221 23.328C111.581 22.688 111.261 21.856 111.261 20.832C111.261 19.568 111.813 18.592 112.917 17.904C114.021 17.2 115.781 16.72 118.197 16.464C118.181 15.84 118.013 15.304 117.693 14.856C117.389 14.392 116.837 14.16 116.037 14.16C115.461 14.16 114.893 14.272 114.333 14.496C113.789 14.72 113.253 14.992 112.725 15.312L111.717 13.464C112.373 13.048 113.109 12.688 113.925 12.384C114.757 12.08 115.637 11.928 116.565 11.928C118.037 11.928 119.133 12.368 119.853 13.248C120.589 14.112 120.957 15.368 120.957 17.016V24H118.677L118.485 22.704H118.389C117.861 23.152 117.293 23.528 116.685 23.832C116.093 24.136 115.445 24.288 114.741 24.288ZM115.629 22.128C116.109 22.128 116.541 22.016 116.925 21.792C117.325 21.552 117.749 21.232 118.197 20.832V18.192C116.597 18.4 115.485 18.712 114.861 19.128C114.237 19.528 113.925 20.024 113.925 20.616C113.925 21.144 114.085 21.528 114.405 21.768C114.725 22.008 115.133 22.128 115.629 22.128ZM128.037 24.288C126.677 24.288 125.709 23.896 125.133 23.112C124.573 22.312 124.293 21.28 124.293 20.016V14.4H122.613V12.336L124.437 12.216L124.773 9H127.077V12.216H130.077V14.4H127.077V20.016C127.077 21.392 127.629 22.08 128.733 22.08C128.941 22.08 129.157 22.056 129.381 22.008C129.605 21.944 129.797 21.88 129.957 21.816L130.437 23.856C130.117 23.968 129.749 24.064 129.333 24.144C128.933 24.24 128.501 24.288 128.037 24.288ZM137.222 24.288C136.134 24.288 135.15 24.048 134.27 23.568C133.39 23.072 132.694 22.368 132.182 21.456C131.67 20.528 131.414 19.416 131.414 18.12C131.414 16.84 131.67 15.736 132.182 14.808C132.71 13.88 133.39 13.168 134.222 12.672C135.054 12.176 135.926 11.928 136.838 11.928C137.91 11.928 138.806 12.168 139.526 12.648C140.246 13.112 140.79 13.768 141.158 14.616C141.526 15.448 141.71 16.416 141.71 17.52C141.71 18.096 141.67 18.544 141.59 18.864H134.102C134.23 19.904 134.606 20.712 135.23 21.288C135.854 21.864 136.638 22.152 137.582 22.152C138.094 22.152 138.566 22.08 138.998 21.936C139.446 21.776 139.886 21.56 140.318 21.288L141.254 23.016C140.694 23.384 140.07 23.688 139.382 23.928C138.694 24.168 137.974 24.288 137.222 24.288ZM134.078 16.992H139.31C139.31 16.08 139.11 15.368 138.71 14.856C138.31 14.328 137.71 14.064 136.91 14.064C136.222 14.064 135.606 14.32 135.062 14.832C134.534 15.328 134.206 16.048 134.078 16.992ZM147.634 24.288C146.834 24.288 146.034 24.136 145.234 23.832C144.434 23.512 143.746 23.12 143.17 22.656L144.466 20.88C144.994 21.28 145.522 21.6 146.05 21.84C146.578 22.08 147.138 22.2 147.73 22.2C148.37 22.2 148.842 22.064 149.146 21.792C149.45 21.52 149.602 21.184 149.602 20.784C149.602 20.448 149.474 20.176 149.218 19.968C148.978 19.744 148.666 19.552 148.282 19.392C147.898 19.216 147.498 19.048 147.082 18.888C146.57 18.696 146.058 18.464 145.546 18.192C145.05 17.904 144.642 17.544 144.322 17.112C144.002 16.664 143.842 16.112 143.842 15.456C143.842 14.416 144.226 13.568 144.994 12.912C145.762 12.256 146.802 11.928 148.114 11.928C148.946 11.928 149.69 12.072 150.346 12.36C151.002 12.648 151.57 12.976 152.05 13.344L150.778 15.024C150.362 14.72 149.938 14.48 149.506 14.304C149.09 14.112 148.65 14.016 148.186 14.016C147.594 14.016 147.154 14.144 146.866 14.4C146.578 14.64 146.434 14.944 146.434 15.312C146.434 15.776 146.674 16.128 147.154 16.368C147.634 16.608 148.194 16.84 148.834 17.064C149.378 17.256 149.906 17.496 150.418 17.784C150.93 18.056 151.354 18.416 151.69 18.864C152.042 19.312 152.218 19.904 152.218 20.64C152.218 21.648 151.826 22.512 151.042 23.232C150.258 23.936 149.122 24.288 147.634 24.288ZM156.242 24.288C155.746 24.288 155.322 24.112 154.97 23.76C154.618 23.408 154.442 22.96 154.442 22.416C154.442 21.872 154.618 21.424 154.97 21.072C155.322 20.72 155.746 20.544 156.242 20.544C156.754 20.544 157.178 20.72 157.514 21.072C157.85 21.424 158.018 21.872 158.018 22.416C158.018 22.96 157.85 23.408 157.514 23.76C157.178 24.112 156.754 24.288 156.242 24.288Z" fill="#283250"/>
</svg>
